<svg width="21" height="21" viewBox="0 0 21 21" fill="none" xmlns="http://www.w3.org/2000/svg">
<circle cx="6" cy="7" r="5" fill="#03FFA4"/>
<circle cx="15" cy="8" r="5" fill="#03FFA4"/>
<ellipse cx="10" cy="12" rx="6" ry="3" fill="#03FFA4"/>
<ellipse cx="10.5" cy="15" rx="2.5" ry="3" fill="#03FFA4"/>
<ellipse cx="10.5" cy="14.5" rx="3.5" ry="1.5" fill="#03FFA4"/>
<path d="M18.2349 4.03364C17.7879 3.58652 17.2573 3.23183 16.6733 2.98984C16.0893 2.74784 15.4633 2.62329 14.8311 2.62329C14.1989 2.62329 13.573 2.74784 12.9889 2.98984C12.4049 3.23183 11.8743 3.58652 11.4274 4.03364L10.4999 4.96114L9.57236 4.03364C8.66963 3.13091 7.44526 2.62376 6.16861 2.62376C4.89196 2.62376 3.66759 3.13091 2.76486 4.03364C1.86213 4.93637 1.35498 6.16073 1.35498 7.43739C1.35498 8.71404 1.86213 9.93841 2.76486 10.8411L3.69236 11.7686L10.4999 18.5761L17.3074 11.7686L18.2349 10.8411C18.682 10.3942 19.0367 9.8636 19.2787 9.27957C19.5207 8.69555 19.6452 8.06956 19.6452 7.43739C19.6452 6.80521 19.5207 6.17923 19.2787 5.5952C19.0367 5.01118 18.682 4.48055 18.2349 4.03364V4.03364Z" stroke="#03FFA4" stroke-width="1.5" stroke-linecap="round" stroke-linejoin="round"/>
</svg>
