<svg width="19" height="19" viewBox="0 0 19 19" fill="none" xmlns="http://www.w3.org/2000/svg">
<path d="M14.25 6.33325C15.5617 6.33325 16.625 5.26993 16.625 3.95825C16.625 2.64658 15.5617 1.58325 14.25 1.58325C12.9383 1.58325 11.875 2.64658 11.875 3.95825C11.875 5.26993 12.9383 6.33325 14.25 6.33325Z" stroke="#949494" stroke-width="1.5" stroke-linecap="round" stroke-linejoin="round"/>
<path d="M4.75 11.875C6.06168 11.875 7.125 10.8117 7.125 9.5C7.125 8.18832 6.06168 7.125 4.75 7.125C3.43832 7.125 2.375 8.18832 2.375 9.5C2.375 10.8117 3.43832 11.875 4.75 11.875Z" stroke="#949494" stroke-width="1.5" stroke-linecap="round" stroke-linejoin="round"/>
<path d="M14.25 17.4167C15.5617 17.4167 16.625 16.3534 16.625 15.0417C16.625 13.7301 15.5617 12.6667 14.25 12.6667C12.9383 12.6667 11.875 13.7301 11.875 15.0417C11.875 16.3534 12.9383 17.4167 14.25 17.4167Z" stroke="#949494" stroke-width="1.5" stroke-linecap="round" stroke-linejoin="round"/>
<path d="M6.80054 10.6953L12.2076 13.8461" stroke="#949494" stroke-width="1.5" stroke-linecap="round" stroke-linejoin="round"/>
<path d="M12.1997 5.15381L6.80054 8.30464" stroke="#949494" stroke-width="1.5" stroke-linecap="round" stroke-linejoin="round"/>
</svg>
